<svg width="256" height="256" viewBox="0 0 256 256" fill="none" xmlns="http://www.w3.org/2000/svg">
<g clip-path="url(#clip0_15043_24465)">
<path d="M113.356 0.614143C115.292 0.39466 117.44 0.151113 118.15 0.0731507C118.865 -0.00925351 124.068 -0.024236 129.703 0.0394398C136.445 0.118099 141.421 0.361565 144.239 0.754854C146.598 1.08447 150.705 1.78865 153.37 2.32054C156.035 2.85242 160.73 4.02106 163.805 4.91626C166.88 5.81522 171.24 7.24608 173.496 8.10003C175.75 8.95405 179.608 10.5684 182.068 11.6846C184.527 12.8046 188.385 14.7485 190.639 16.0109C192.895 17.2694 196.838 19.7003 199.398 21.412C201.962 23.1238 205.82 25.9443 207.97 27.6785C210.121 29.4127 213.512 32.3306 215.506 34.1622C217.496 35.9939 220.579 39.0915 222.356 41.0504C224.131 43.0094 226.937 46.2943 228.584 48.3544C230.236 50.4145 233.131 54.4598 235.025 57.344C236.918 60.2282 239.646 64.8614 241.088 67.6448C242.531 70.4275 244.566 74.6413 245.613 77.0086C246.66 79.376 248.326 83.6762 249.31 86.56C250.298 89.4438 251.628 93.913 252.266 96.4858C252.907 99.063 253.853 103.865 254.371 107.161C254.886 110.457 255.508 116.611 255.75 120.833C256.082 126.672 256.082 130.125 255.757 135.253C255.519 138.961 254.89 144.61 254.353 147.801C253.816 150.993 252.817 155.798 252.135 158.476C251.45 161.155 250.141 165.537 249.228 168.215C248.315 170.893 246.929 174.684 246.15 176.643C245.371 178.602 243.377 182.898 241.722 186.194C240.067 189.49 236.925 194.884 234.737 198.18C232.554 201.476 229.345 205.945 227.615 208.106C225.882 210.268 222.975 213.627 221.156 215.571C219.338 217.511 216.002 220.778 213.747 222.822C211.492 224.872 207.467 228.186 204.803 230.194C202.138 232.202 198.365 234.846 196.417 236.075C194.467 237.3 192.037 238.787 191.012 239.379C189.987 239.97 186.883 241.585 184.117 242.963C181.352 244.341 177.159 246.233 174.8 247.162C172.441 248.095 168.922 249.364 166.973 249.986C165.024 250.612 161.42 251.634 158.96 252.26C156.5 252.885 151.972 253.811 148.897 254.32C145.823 254.829 140.791 255.451 137.716 255.702C134.302 255.979 129.222 256.073 124.672 255.942C120.572 255.825 115.287 255.455 112.932 255.125C110.576 254.792 106.801 254.181 104.546 253.769C102.291 253.354 98.2662 252.44 95.6013 251.735C92.9363 251.031 89.3325 249.964 87.5885 249.364C85.8438 248.765 82.6573 247.563 80.5069 246.698C78.3565 245.828 74.9165 244.323 72.8666 243.352C70.8166 242.379 67.2947 240.521 65.04 239.221C62.785 237.917 59.5164 235.914 57.7722 234.767C56.028 233.617 52.8413 231.336 50.6909 229.696C48.5404 228.055 45.1004 225.246 43.0506 223.455C41.0007 221.665 37.4787 218.275 35.2239 215.919C32.969 213.567 29.652 209.791 27.8518 207.533C26.048 205.274 23.5397 201.907 22.2725 200.053C21.0054 198.199 18.8213 194.746 17.42 192.374C16.0223 190.003 13.8943 186.044 12.6904 183.572C11.4903 181.1 9.8393 177.392 9.02304 175.332C8.21056 173.272 6.78688 169.226 5.86257 166.342C4.942 163.458 3.67855 158.821 3.05987 156.042C2.43746 153.262 1.6697 149.131 1.34917 146.865C1.02865 144.598 0.592593 140.973 0.380154 138.812C0.171442 136.65 0 131.594 0 127.575C0.003727 123.556 0.175169 118.417 0.387608 116.15C0.596319 113.884 1.17028 109.588 1.66224 106.599C2.15048 103.61 3.05614 99.1456 3.67109 96.6733C4.28605 94.201 5.32588 90.4928 5.97811 88.4326C6.63034 86.3725 7.99443 82.5824 9.0119 80.0051C10.0294 77.4317 12.2469 72.6259 13.9352 69.3299C15.6236 66.0339 17.9977 61.7376 19.209 59.7787C20.4202 57.8197 22.8875 54.2388 24.6839 51.8192C26.484 49.3995 29.6893 45.4366 31.8099 43.0169C33.9306 40.5972 37.3259 37.0388 39.3571 35.1136C41.3883 33.1846 44.9811 30.0495 47.3366 28.143C49.692 26.2364 53.4675 23.4122 55.7223 21.8616C57.9771 20.3108 61.6669 17.9811 63.9217 16.6776C66.1766 15.3779 69.952 13.4001 72.3072 12.284C74.663 11.1677 77.8496 9.74438 79.3888 9.12634C80.9242 8.50458 83.8611 7.42208 85.911 6.71789C87.961 6.00999 92.1536 4.77768 95.2288 3.97611C98.3034 3.17828 102.831 2.18195 105.292 1.76993C107.751 1.35791 111.356 0.837261 113.304 0.620014L113.356 0.614143Z" fill="#203C4E"/>
<path d="M113.356 0.614143C115.292 0.39466 117.44 0.151113 118.15 0.0731507C118.865 -0.00925351 124.068 -0.024236 129.703 0.0394398C136.445 0.118099 141.421 0.361565 144.239 0.754854C146.598 1.08447 150.705 1.78865 153.37 2.32054C156.035 2.85242 160.73 4.02106 163.805 4.91626C166.88 5.81522 171.24 7.24608 173.496 8.10003C175.75 8.95405 179.608 10.5684 182.068 11.6846C184.527 12.8046 188.385 14.7485 190.639 16.0109C192.895 17.2694 196.838 19.7003 199.398 21.412C201.962 23.1238 205.82 25.9443 207.97 27.6785C210.121 29.4127 213.512 32.3306 215.506 34.1622C217.496 35.9939 220.579 39.0915 222.356 41.0504C224.131 43.0094 226.937 46.2943 228.584 48.3544C230.236 50.4145 233.131 54.4598 235.025 57.344C236.918 60.2282 239.646 64.8614 241.088 67.6448C242.531 70.4275 244.566 74.6413 245.613 77.0086C246.66 79.376 248.326 83.6762 249.31 86.56C250.298 89.4438 251.628 93.913 252.266 96.4858C252.907 99.063 253.853 103.865 254.371 107.161C254.886 110.457 255.508 116.611 255.75 120.833C256.082 126.672 256.082 130.125 255.757 135.253C255.519 138.961 254.89 144.61 254.353 147.801C253.816 150.993 252.817 155.798 252.135 158.476C251.45 161.155 250.141 165.537 249.228 168.215C248.315 170.893 246.929 174.684 246.15 176.643C245.371 178.602 243.377 182.898 241.722 186.194C240.067 189.49 236.925 194.884 234.737 198.18C232.554 201.476 229.345 205.945 227.615 208.106C225.882 210.268 222.975 213.627 221.156 215.571C219.338 217.511 216.002 220.778 213.747 222.822C211.492 224.872 207.467 228.186 204.803 230.194C202.138 232.202 198.365 234.846 196.417 236.075C194.467 237.3 192.037 238.787 191.012 239.379C189.987 239.97 186.883 241.585 184.117 242.963C181.352 244.341 177.159 246.233 174.8 247.162C172.441 248.095 168.922 249.364 166.973 249.986C165.024 250.612 161.42 251.634 158.96 252.26C156.5 252.885 151.972 253.811 148.897 254.32C145.823 254.829 140.791 255.451 137.716 255.702C134.302 255.979 129.222 256.073 124.672 255.942C120.572 255.825 115.287 255.455 112.932 255.125C110.576 254.792 106.801 254.181 104.546 253.769C102.291 253.354 98.2662 252.44 95.6013 251.735C92.9363 251.031 89.3325 249.964 87.5885 249.364C85.8438 248.765 82.6573 247.563 80.5069 246.698C78.3565 245.828 74.9165 244.323 72.8666 243.352C70.8166 242.379 67.2947 240.521 65.04 239.221C62.785 237.917 59.5164 235.914 57.7722 234.767C56.028 233.617 52.8413 231.336 50.6909 229.696C48.5404 228.055 45.1004 225.246 43.0506 223.455C41.0007 221.665 37.4787 218.275 35.2239 215.919C32.969 213.567 29.652 209.791 27.8518 207.533C26.048 205.274 23.5397 201.907 22.2725 200.053C21.0054 198.199 18.8213 194.746 17.42 192.374C16.0223 190.003 13.8943 186.044 12.6904 183.572C11.4903 181.1 9.8393 177.392 9.02304 175.332C8.21056 173.272 6.78688 169.226 5.86257 166.342C4.942 163.458 3.67855 158.821 3.05987 156.042C2.43746 153.262 1.6697 149.131 1.34917 146.865C1.02865 144.598 0.592593 140.973 0.380154 138.812C0.171442 136.65 0 131.594 0 127.575C0.003727 123.556 0.175169 118.417 0.387608 116.15C0.596319 113.884 1.17028 109.588 1.66224 106.599C2.15048 103.61 3.05614 99.1456 3.67109 96.6733C4.28605 94.201 5.32588 90.4928 5.97811 88.4326C6.63034 86.3725 7.99443 82.5824 9.0119 80.0051C10.0294 77.4317 12.2469 72.6259 13.9352 69.3299C15.6236 66.0339 17.9977 61.7376 19.209 59.7787C20.4202 57.8197 22.8875 54.2388 24.6839 51.8192C26.484 49.3995 29.6893 45.4366 31.8099 43.0169C33.9306 40.5972 37.3259 37.0388 39.3571 35.1136C41.3883 33.1846 44.9811 30.0495 47.3366 28.143C49.692 26.2364 53.4675 23.4122 55.7223 21.8616C57.9771 20.3108 61.6669 17.9811 63.9217 16.6776C66.1766 15.3779 69.952 13.4001 72.3072 12.284C74.663 11.1677 77.8496 9.74438 79.3888 9.12634C80.9242 8.50458 83.8611 7.42208 85.911 6.71789C87.961 6.00999 92.1536 4.77768 95.2288 3.97611C98.3034 3.17828 102.831 2.18195 105.292 1.76993C107.751 1.35791 111.356 0.837261 113.304 0.620014L113.356 0.614143Z" fill="#203C4E"/>
<path fill-rule="evenodd" clip-rule="evenodd" d="M50.2586 50.5313C50.3927 50.5276 50.8326 51.0717 51.235 51.7425C51.6375 52.4097 53.4004 54.3849 55.1484 56.1254C56.9001 57.8696 59.673 60.3069 61.3129 61.5405C62.9527 62.7742 65.8894 64.7755 67.835 65.987C69.7844 67.1941 73.3883 69.2145 75.8484 70.4702C78.3079 71.7297 82.754 73.7758 85.7249 75.0245C88.699 76.2731 96.0782 79.1428 102.124 81.4052C108.172 83.667 115.048 86.3397 117.404 87.3496C119.763 88.3557 123.87 90.2897 126.535 91.6465C129.2 93.0033 132.808 95.0641 134.549 96.227C136.289 97.3899 138.89 99.2977 140.325 100.468C141.76 101.638 144.078 103.837 145.48 105.354C146.878 106.875 149.091 109.707 150.396 111.656C151.7 113.606 153.593 116.96 154.604 119.11C155.614 121.261 156.873 124.365 157.402 126.005C157.932 127.645 158.617 129.993 158.919 131.223C159.225 132.452 159.735 135.222 160.052 137.372C160.369 139.522 160.63 142.962 160.63 145.012C160.634 147.062 160.376 150.416 160.063 152.466C159.751 154.516 158.915 157.956 158.2 160.106C157.488 162.256 156.65 164.355 155.755 165.51L155.934 164.765C156.031 164.355 156.213 163.014 156.34 161.784C156.467 160.553 156.396 157.911 156.18 155.913C155.967 153.916 155.512 151.147 155.174 149.764C154.831 148.381 153.944 145.739 153.198 143.894C152.453 142.049 150.913 139.113 149.773 137.372C148.632 135.632 146.698 133.116 145.472 131.782C144.246 130.448 141.917 128.245 140.292 126.881C138.67 125.52 135.834 123.456 133.989 122.301C132.145 121.142 129.043 119.378 127.095 118.383C125.149 117.389 121.288 115.622 118.522 114.455C115.757 113.289 108.627 110.49 102.682 108.239C96.738 105.984 90.283 103.465 88.3335 102.633C86.3879 101.806 82.9479 100.211 80.6932 99.0929C78.4385 97.971 75.0843 96.1713 73.2391 95.0865C71.3947 94.0017 68.4615 92.0491 66.7169 90.7486C64.9768 89.4443 62.293 87.1185 60.7538 85.5755C59.2183 84.0324 57.0939 81.5134 56.0354 79.9774C54.9769 78.4382 53.5607 76.0088 52.8898 74.5739C52.219 73.139 51.2761 70.5413 50.7952 68.7966C50.3145 67.0526 49.8225 64.0376 49.6958 62.0885C49.5728 60.1393 49.5915 56.7441 49.7405 54.5414C49.8896 52.3388 50.1244 50.5313 50.2586 50.5313ZM192.131 86.7083C194.281 86.6974 196.622 86.9656 198.653 87.4539C200.393 87.8712 203.412 88.9707 205.361 89.8948C207.311 90.8152 210.494 92.6526 212.442 93.9685C214.392 95.2875 216.624 96.9124 218.827 98.7985L216.475 98.6641C215.063 98.5822 213.147 98.7761 211.697 99.1454C210.363 99.4878 208.268 100.393 207.038 101.165C205.775 101.955 204.027 103.528 203.025 104.78C202.044 105.999 200.636 108.172 199.89 109.607C199.141 111.042 198.071 113.557 197.512 115.197C196.953 116.837 196.066 120.191 195.544 122.651C195.023 125.111 193.979 130.31 193.226 134.204C192.47 138.099 191.307 143.13 190.639 145.385C189.973 147.639 188.832 151.076 188.102 153.025C187.371 154.975 186.119 157.993 185.321 159.734C184.52 161.474 182.809 164.664 181.516 166.815C180.223 168.965 178.031 172.237 176.648 174.082C175.266 175.927 172.802 178.864 171.174 180.604C169.545 182.345 166.634 185.051 164.703 186.612C162.776 188.174 159.56 190.562 157.562 191.923C155.565 193.283 153.887 194.386 153.836 194.379C153.783 194.368 154.808 192.735 156.109 190.745C157.41 188.755 159.62 184.779 161.021 181.909C162.423 179.039 164.178 174.928 164.916 172.778C165.658 170.628 166.664 167.273 167.156 165.324C167.644 163.375 168.3 160.274 168.613 158.429C168.922 156.584 169.374 152.895 169.608 150.23C169.847 147.532 169.928 143.816 169.787 141.844C169.649 139.895 169.37 137.044 169.169 135.509C168.963 133.97 168.382 131.122 167.875 129.173C167.368 127.223 166.515 124.458 165.982 123.023C165.445 121.589 164.111 118.652 163.015 116.502C161.919 114.351 161.021 112.379 161.018 112.122C161.014 111.865 161.975 110.054 163.153 108.093C164.331 106.133 166.325 103.159 167.585 101.478C168.84 99.8008 170.939 97.3489 172.243 96.0331C173.548 94.7141 175.62 92.8952 176.85 91.9857C178.079 91.0763 180.092 89.8277 181.322 89.2094C182.552 88.5905 184.732 87.7784 186.167 87.4053C187.71 87.0027 190.148 86.7198 192.131 86.7083ZM58.7785 102.711C58.8418 102.711 59.7699 103.446 60.847 104.344C61.9241 105.242 64.1454 106.845 65.7851 107.907C67.4254 108.969 70.4443 110.65 72.4935 111.645C74.5435 112.64 77.9835 114.153 80.1345 115.01C82.2849 115.868 89.2468 118.327 95.6014 120.474C101.956 122.624 108.538 124.958 110.23 125.659C111.922 126.363 114.982 127.775 117.031 128.8C119.081 129.825 121.891 131.357 123.274 132.203C124.657 133.049 127.132 134.786 128.771 136.06C130.412 137.335 132.99 139.705 134.508 141.323C136.021 142.944 137.884 145.191 138.652 146.317C139.416 147.442 140.806 149.876 141.734 151.721C142.662 153.565 143.851 156.502 144.376 158.243C144.898 159.983 145.502 162.499 145.711 163.833C145.923 165.167 146.098 168.1 146.098 170.355C146.098 172.61 145.867 175.796 145.58 177.437C145.294 179.076 144.622 181.719 144.09 183.306C143.557 184.894 142.427 187.577 141.578 189.27C140.732 190.961 139.24 193.518 138.264 194.953C137.288 196.388 135.089 199.22 133.378 201.248C131.663 203.275 130.098 205.038 129.897 205.161C129.692 205.288 129.994 204.635 130.564 203.711C131.134 202.787 132.119 201.028 132.752 199.798C133.386 198.568 134.537 195.635 135.309 193.276C136.084 190.917 136.922 187.563 137.176 185.822C137.459 183.892 137.552 180.981 137.425 178.368C137.276 175.368 136.926 173.102 136.252 170.821C135.726 169.028 134.772 166.513 134.131 165.231C133.494 163.949 132.256 161.896 131.388 160.665C130.516 159.435 128.73 157.423 127.418 156.193C126.103 154.963 124.027 153.293 122.801 152.481C121.575 151.668 119.144 150.294 117.404 149.429C115.663 148.56 110.547 146.6 106.037 145.068C101.527 143.54 96.0743 141.587 93.9239 140.726C91.7735 139.869 88.3335 138.375 86.2836 137.406C84.2337 136.437 80.9652 134.67 79.0158 133.478C77.067 132.288 74.5511 130.6 73.4254 129.728C72.3003 128.856 70.3099 127.071 69.0055 125.766C67.7012 124.462 65.9079 122.39 65.0247 121.16C64.1377 119.93 62.7515 117.497 61.939 115.756C61.1265 114.012 60.1947 111.496 59.863 110.166C59.5351 108.835 59.1326 106.61 58.9686 105.227C58.8046 103.845 58.7189 102.711 58.7785 102.711ZM83.2539 148.18C83.3844 148.18 83.9508 148.493 84.5134 148.881C85.0759 149.264 86.8801 150.245 88.5198 151.061C90.1601 151.877 93.5143 153.312 95.9739 154.255C98.434 155.194 102.962 156.901 106.037 158.049C109.112 159.193 112.634 160.692 113.864 161.377C115.093 162.059 117.169 163.606 118.474 164.809C119.782 166.017 121.284 167.754 121.813 168.678C122.343 169.602 123.077 171.321 123.446 172.498C123.811 173.676 123.986 174.839 123.833 175.081C123.632 175.398 122.414 175.454 119.454 175.286C117.199 175.16 113.845 174.72 112 174.31C110.155 173.903 107.39 173.12 105.85 172.573C104.315 172.025 101.881 170.989 100.446 170.273C99.0113 169.558 96.9166 168.361 95.7915 167.616C94.6657 166.867 92.5934 165.167 91.1847 163.833C89.7761 162.499 87.9015 160.322 87.0145 158.988C86.1275 157.654 84.987 155.478 84.4833 154.143C83.9764 152.809 83.4401 150.923 83.291 149.951C83.138 148.978 83.1233 148.18 83.2539 148.18ZM124.042 184.022C124.113 184.499 123.889 186.4 123.546 188.244C123.203 190.089 122.439 192.941 121.843 194.58C121.247 196.22 119.994 198.904 119.059 200.543C118.124 202.183 116.401 204.695 115.239 206.123C114.072 207.55 111.776 209.775 110.136 211.064C108.497 212.354 106.067 213.983 104.732 214.683C103.402 215.384 100.718 216.513 98.7694 217.195C95.2475 218.425 95.195 218.432 88.3335 218.422C81.9713 218.414 81.1515 218.332 77.7115 217.382C75.6615 216.815 72.6427 215.708 71.003 214.918C69.3633 214.128 67.0971 212.752 63.9218 210.244L66.1582 209.961C67.3876 209.805 70.4065 209.186 72.8667 208.586C75.3262 207.99 79.2692 206.875 81.6251 206.115C83.9841 205.355 88.2593 203.741 91.1291 202.526C93.9988 201.315 98.5268 199.183 101.192 197.793C103.857 196.403 107.763 194.185 109.876 192.873C111.985 191.558 116.01 188.833 118.813 186.817C123.539 183.422 123.927 183.217 124.042 184.022Z" fill="white"/>
</g>
<defs>
<clipPath id="clip0_15043_24465">
<rect width="256" height="256" fill="white"/>
</clipPath>
</defs>
</svg>
